<svg xmlns="http://www.w3.org/2000/svg" xmlns:xlink="http://www.w3.org/1999/xlink" width="847.159" height="275.499" viewBox="0 0 847.159 275.499">
  <defs>
    <style>
      .cls-1 {
        fill: #ff006c;
        font-size: 80px;
        font-family: HelveticaNeue-Thin, Helvetica Neue;
        font-weight: 200;
        letter-spacing: 0.088em;
      }

      .cls-2 {
        fill: #fff;
        font-size: 164px;
        font-family: HelveticaNeue-UltraLight, Helvetica Neue;
        font-weight: 100;
        letter-spacing: 0.258em;
      }

      .cls-3 {
        fill: url(#linear-gradient);
      }
    </style>
    <linearGradient id="linear-gradient" x1="0.5" x2="0.5" y2="1" gradientUnits="objectBoundingBox">
      <stop offset="0" stop-color="#ff006c"/>
      <stop offset="1" stop-color="#d93d91"/>
    </linearGradient>
  </defs>
  <g id="Group_1" data-name="Group 1" transform="translate(-717 -461)">
    <text id="damage" class="cls-1" transform="translate(1393 703)"><tspan x="-307.84" y="0">damage</tspan></text>
    <text id="Danrus" class="cls-2" transform="translate(717 614)"><tspan x="0" y="0">Danrus</tspan></text>
    <path id="Union_3" data-name="Union 3" class="cls-3" d="M56.344,255.767A13.391,13.391,0,0,1,51.63,250h-.118c-1.1-1.993-2.206-4-3.289-5.972-10.554-19.191-21.291-40.8-31.913-64.226a286.29,286.29,0,0,1-12.5-31.613A58.92,58.92,0,0,1,.384,133.714a38.928,38.928,0,0,1-.35-4.413c-.005-.222-.008-.467-.01-.843-.01-.3-.016-.579-.02-.842a34.746,34.746,0,0,1,.142-3.625,58.544,58.544,0,0,1,3.915-17.948c.67-2.205,1.424-4.537,2.243-6.93,4.3-12.56,9.06-24.887,14.157-36.636s11.119-24.829,17.915-38.9c2.448-5.07,4.671-9.637,6.6-13.576h1.126a14.66,14.66,0,0,1,27.8,0h.63l.407.739c10.55,19.187,21.287,40.8,31.911,64.225a286.193,286.193,0,0,1,12.5,31.615,59,59,0,0,1,3.426,14.474,39.229,39.229,0,0,1,.352,4.414c0,.318.008.593.01.842s.013.5.02.843a34.726,34.726,0,0,1-.144,3.623,58.51,58.51,0,0,1-3.913,17.948c-.668,2.2-1.423,4.531-2.244,6.93-4.29,12.542-9.053,24.869-14.156,36.637-5.116,11.8-11.143,24.884-17.916,38.9-3.639,7.534-6.73,13.861-9.187,18.806h-.219a13.391,13.391,0,0,1-4.713,5.768,12.609,12.609,0,0,1-14.325,0ZM47.669,113.2a20.159,20.159,0,1,0,14.256-5.906A20.025,20.025,0,0,0,47.669,113.2Z" transform="translate(1440.994 478.5)"/>
  </g>
</svg>
